<svg width="17" height="15" viewBox="0 0 17 15" fill="none" xmlns="http://www.w3.org/2000/svg">
<path d="M2.32204 9.74991C2.11671 9.75106 1.91934 9.6728 1.77355 9.53241L0.228511 8.03241C0.0822625 7.89159 0 7.69989 0 7.49991C0 7.29993 0.0822625 7.10824 0.228511 6.96741L1.77355 5.46741C1.96951 5.27717 2.25512 5.20287 2.52281 5.2725C2.79049 5.34214 2.99957 5.54513 3.0713 5.805C3.14302 6.06488 3.06649 6.34217 2.87053 6.53241L1.86626 7.49991L2.87053 8.46741C3.01678 8.60824 3.09904 8.79993 3.09904 8.99991C3.09904 9.19989 3.01678 9.39159 2.87053 9.53241C2.72474 9.6728 2.52738 9.75106 2.32204 9.74991Z" fill="white"/>
<path d="M10.8197 8.25H0.776916C0.350264 8.25 0.00439453 7.91421 0.00439453 7.5C0.00439453 7.08579 0.350264 6.75 0.776916 6.75H10.8197C11.2463 6.75 11.5922 7.08579 11.5922 7.5C11.5922 7.91421 11.2463 8.25 10.8197 8.25Z" fill="white"/>
<path d="M14.6824 15H6.95721C5.67726 15 4.63965 13.9926 4.63965 12.75V9.75C4.63965 9.33579 4.98552 9 5.41217 9C5.83882 9 6.18469 9.33579 6.18469 9.75V12.75C6.18469 13.1642 6.53056 13.5 6.95721 13.5H14.6824C15.1091 13.5 15.4549 13.1642 15.4549 12.75V2.25C15.4549 1.83579 15.1091 1.5 14.6824 1.5H6.95721C6.53056 1.5 6.18469 1.83579 6.18469 2.25V5.25C6.18469 5.66421 5.83882 6 5.41217 6C4.98552 6 4.63965 5.66421 4.63965 5.25V2.25C4.63965 1.00736 5.67726 0 6.95721 0H14.6824C15.9624 0 17 1.00736 17 2.25V12.75C17 13.9926 15.9624 15 14.6824 15Z" fill="white"/>
</svg>
