<svg width="15" height="16" viewBox="0 0 15 16" fill="none" xmlns="http://www.w3.org/2000/svg">
<path d="M7.34339 0.0140639C7.44718 -0.00468796 7.55431 -0.00468796 7.65809 0.0140639L14.3539 1.26419C14.7288 1.33294 15 1.64235 15 1.99863C15 2.35492 14.7288 2.66432 14.3539 2.73308L11.786 3.21438V4.99893C11.786 7.20852 9.8677 8.99932 7.50074 8.99932C5.13379 8.99932 3.21546 7.20852 3.21546 4.99893V3.21438L1.60847 2.91435V4.94892L2.13409 7.39916C2.16422 7.54605 2.12405 7.69919 2.02361 7.81483C1.92317 7.93046 1.76917 7.99922 1.60847 7.99922H0.537151C0.376453 7.99922 0.225798 7.93359 0.122014 7.81483C0.0182297 7.69606 -0.0219448 7.54605 0.011534 7.39916L0.537151 4.94892V2.70495C0.219103 2.60182 0.00149032 2.32054 0.00149032 1.99863C0.00149032 1.64235 0.272669 1.33294 0.647631 1.26419L7.34339 0.0140639ZM4.32361 10.0994L7.10904 12.8622C7.31996 13.0716 7.67818 13.0716 7.8891 12.8622L10.6745 10.0994C13.1419 10.5651 14.9967 12.5997 14.9967 15.0405C14.9967 15.5718 14.5346 16 13.9689 16H1.02929C0.463498 16 0.00149032 15.5687 0.00149032 15.0405C0.00149032 12.5997 1.85956 10.5651 4.32361 10.0994Z" fill="white"/>
</svg>
