<svg width="127" height="24" viewBox="0 0 127 24" fill="none" xmlns="http://www.w3.org/2000/svg">
<path d="M72.8965 12.5971C75.7012 9.71385 75.7012 5.04459 72.8965 2.16139C70.4145 -0.390116 66.5029 -0.721812 63.6485 1.37553L63.5691 1.43166C62.8543 1.95727 62.6905 2.97787 63.2018 3.7076C63.7131 4.43733 64.7059 4.61084 65.4157 4.08523L65.4952 4.02909C67.0886 2.8605 69.2678 3.04421 70.6478 4.46795C72.2115 6.0754 72.2115 8.67794 70.6478 10.2854L65.0782 16.0212C63.5145 17.6286 60.9829 17.6286 59.4192 16.0212C58.0343 14.5974 57.8555 12.3572 58.9923 10.7242L59.0469 10.6426C59.5582 9.90776 59.3894 8.88716 58.6796 8.36666C57.9697 7.84615 56.972 8.01455 56.4656 8.74428L56.411 8.82593C54.3658 11.7551 54.6885 15.7762 57.1705 18.3277C59.9752 21.2109 64.5173 21.2109 67.3219 18.3277L72.8965 12.5971ZM47.1035 11.4029C44.2988 14.2861 44.2988 18.9554 47.1035 21.8386C49.5855 24.3901 53.4971 24.7218 56.3515 22.6245L56.4309 22.5683C57.1457 22.0427 57.3095 21.0221 56.7982 20.2924C56.2869 19.5627 55.2941 19.3892 54.5843 19.9148L54.5048 19.9709C52.9114 21.1395 50.7322 20.9558 49.3522 19.532C47.7885 17.9195 47.7885 15.317 49.3522 13.7095L54.9218 7.97883C56.4855 6.37138 59.0171 6.37138 60.5808 7.97883C61.9657 9.40257 62.1445 11.6428 61.0077 13.2809L60.9531 13.3625C60.4418 14.0973 60.6106 15.1179 61.3204 15.6384C62.0303 16.159 63.028 15.9906 63.5344 15.2608L63.589 15.1792C65.6342 12.2449 65.3115 8.22377 62.8295 5.67226C60.0248 2.78906 55.4828 2.78906 52.6781 5.67226L47.1035 11.4029Z" fill="white"/>
<path d="M2.28 5H3.76V17.72H11.6V19H2.28V5ZM17.3573 5H18.8373V19H17.3573V5ZM38.3925 5V19H37.1725L28.1725 7.64V19H26.6925V5H27.9125L36.9325 16.36V5H38.3925ZM84.7395 12.42L81.8795 15.32V19H80.3995V5H81.8795V13.46L90.0995 5H91.7995L85.7395 11.34L92.2195 19H90.4595L84.7395 12.42ZM107.818 17.72V19H97.9183V5H107.518V6.28H99.3983V11.26H106.638V12.52H99.3983V17.72H107.818ZM124.157 19L120.957 14.5C120.597 14.54 120.224 14.56 119.837 14.56H116.077V19H114.597V5H119.837C121.624 5 123.024 5.42667 124.037 6.28C125.051 7.13333 125.557 8.30667 125.557 9.8C125.557 10.8933 125.277 11.82 124.717 12.58C124.171 13.3267 123.384 13.8667 122.357 14.2L125.777 19H124.157ZM119.797 13.3C121.184 13.3 122.244 12.9933 122.977 12.38C123.711 11.7667 124.077 10.9067 124.077 9.8C124.077 8.66667 123.711 7.8 122.977 7.2C122.244 6.58667 121.184 6.28 119.797 6.28H116.077V13.3H119.797Z" fill="white"/>
</svg>
