<svg width="250" height="45" viewBox="0 0 250 45" fill="none" xmlns="http://www.w3.org/2000/svg">
<rect x="0.5" y="0.5" width="249" height="44" fill="white" stroke="white"/>
<path d="M86.54 31.08C85.18 31.08 83.9467 30.7733 82.84 30.16C81.7467 29.5467 80.8867 28.7 80.26 27.62C79.6333 26.54 79.32 25.3333 79.32 24C79.32 22.6667 79.6333 21.46 80.26 20.38C80.8867 19.3 81.7467 18.4533 82.84 17.84C83.9467 17.2267 85.18 16.92 86.54 16.92C87.5 16.92 88.4 17.08 89.24 17.4C90.08 17.7067 90.8 18.1667 91.4 18.78L90.98 19.22C89.82 18.1 88.3467 17.54 86.56 17.54C85.3333 17.54 84.22 17.8267 83.22 18.4C82.22 18.96 81.4333 19.7333 80.86 20.72C80.2867 21.7067 80 22.8 80 24C80 25.2 80.2867 26.2933 80.86 27.28C81.4333 28.2667 82.22 29.0467 83.22 29.62C84.22 30.18 85.3333 30.46 86.56 30.46C88.3333 30.46 89.8067 29.8933 90.98 28.76L91.4 29.2C90.8 29.8133 90.08 30.28 89.24 30.6C88.4133 30.92 87.5133 31.08 86.54 31.08ZM97.8378 26.02H95.1778V31H94.5178V20.62H95.1778V25.44H97.8578L101.958 20.62H102.718L98.3778 25.7L103.038 31H102.238L97.8378 26.02ZM108.815 20.54C110.055 20.54 111.002 20.86 111.655 21.5C112.322 22.14 112.655 23.0667 112.655 24.28V31H112.015V28.92C111.682 29.5867 111.182 30.1133 110.515 30.5C109.862 30.8733 109.075 31.06 108.155 31.06C106.995 31.06 106.082 30.7933 105.415 30.26C104.762 29.7267 104.435 29.02 104.435 28.14C104.435 27.3 104.735 26.62 105.335 26.1C105.935 25.5667 106.895 25.3 108.215 25.3H111.995V24.28C111.995 23.2533 111.722 22.4733 111.175 21.94C110.642 21.4067 109.849 21.14 108.795 21.14C108.062 21.14 107.375 21.2667 106.735 21.52C106.095 21.7733 105.549 22.1133 105.095 22.54L104.735 22.06C105.242 21.58 105.849 21.2067 106.555 20.94C107.275 20.6733 108.029 20.54 108.815 20.54ZM108.195 30.5C110.062 30.5 111.329 29.6667 111.995 28V25.84H108.215C107.135 25.84 106.342 26.0467 105.835 26.46C105.342 26.86 105.095 27.4067 105.095 28.1C105.095 28.8467 105.369 29.4333 105.915 29.86C106.475 30.2867 107.235 30.5 108.195 30.5ZM124.061 20.62V31H123.401V26.44C122.081 27.0133 120.801 27.3 119.561 27.3C118.374 27.3 117.434 27.0267 116.741 26.48C116.047 25.9333 115.701 25.14 115.701 24.1V20.62H116.361V24.08C116.361 24.9333 116.654 25.5933 117.241 26.06C117.827 26.5133 118.621 26.74 119.621 26.74C120.767 26.74 122.027 26.44 123.401 25.84V20.62H124.061ZM131.94 20.54C133.18 20.54 134.127 20.86 134.78 21.5C135.447 22.14 135.78 23.0667 135.78 24.28V31H135.14V28.92C134.807 29.5867 134.307 30.1133 133.64 30.5C132.987 30.8733 132.2 31.06 131.28 31.06C130.12 31.06 129.207 30.7933 128.54 30.26C127.887 29.7267 127.56 29.02 127.56 28.14C127.56 27.3 127.86 26.62 128.46 26.1C129.06 25.5667 130.02 25.3 131.34 25.3H135.12V24.28C135.12 23.2533 134.847 22.4733 134.3 21.94C133.767 21.4067 132.974 21.14 131.92 21.14C131.187 21.14 130.5 21.2667 129.86 21.52C129.22 21.7733 128.674 22.1133 128.22 22.54L127.86 22.06C128.367 21.58 128.974 21.2067 129.68 20.94C130.4 20.6733 131.154 20.54 131.94 20.54ZM131.32 30.5C133.187 30.5 134.454 29.6667 135.12 28V25.84H131.34C130.26 25.84 129.467 26.0467 128.96 26.46C128.467 26.86 128.22 27.4067 128.22 28.1C128.22 28.8467 128.494 29.4333 129.04 29.86C129.6 30.2867 130.36 30.5 131.32 30.5ZM146.666 21.22H142.526V31H141.866V21.22H137.706V20.62H146.666V21.22ZM152.793 24.48C154.073 24.5067 155.047 24.7933 155.713 25.34C156.38 25.8733 156.713 26.66 156.713 27.7C156.713 28.8067 156.36 29.6467 155.653 30.22C154.96 30.78 153.94 31.0533 152.593 31.04L148.873 31V20.62H149.533V24.44L152.793 24.48ZM152.593 30.48C153.74 30.4933 154.6 30.2667 155.173 29.8C155.76 29.3333 156.053 28.64 156.053 27.72C156.053 26.8133 155.767 26.1467 155.193 25.72C154.633 25.28 153.767 25.0467 152.593 25.02L149.533 24.98V30.46L152.593 30.48ZM179.451 24C179.451 25.2267 179.144 26.2867 178.531 27.18C177.931 28.0733 177.064 28.7667 175.931 29.26C174.811 29.74 173.471 29.9933 171.911 30.02V31.42H171.251V30.02C169.704 30.0067 168.364 29.76 167.231 29.28C166.097 28.7867 165.224 28.0933 164.611 27.2C163.997 26.3067 163.691 25.24 163.691 24C163.691 22.76 163.997 21.6933 164.611 20.8C165.224 19.9067 166.097 19.22 167.231 18.74C168.364 18.2467 169.704 17.9933 171.251 17.98V16.58H171.911V17.98C173.471 18.0067 174.811 18.26 175.931 18.74C177.064 19.22 177.931 19.9067 178.531 20.8C179.144 21.6933 179.451 22.76 179.451 24ZM171.911 29.42C174.071 29.3667 175.757 28.8667 176.971 27.92C178.184 26.9733 178.791 25.6667 178.791 24C178.791 22.32 178.177 21.0067 176.951 20.06C175.737 19.1 174.057 18.6 171.911 18.56V29.42ZM164.371 24C164.371 25.68 164.977 26.9933 166.191 27.94C167.417 28.8733 169.104 29.3667 171.251 29.42V18.56C169.091 18.6133 167.404 19.1133 166.191 20.06C164.977 21.0067 164.371 22.32 164.371 24ZM186.237 20.54C187.477 20.54 188.424 20.86 189.077 21.5C189.744 22.14 190.077 23.0667 190.077 24.28V31H189.437V28.92C189.104 29.5867 188.604 30.1133 187.937 30.5C187.284 30.8733 186.497 31.06 185.577 31.06C184.417 31.06 183.504 30.7933 182.837 30.26C182.184 29.7267 181.857 29.02 181.857 28.14C181.857 27.3 182.157 26.62 182.757 26.1C183.357 25.5667 184.317 25.3 185.637 25.3H189.417V24.28C189.417 23.2533 189.144 22.4733 188.597 21.94C188.064 21.4067 187.271 21.14 186.217 21.14C185.484 21.14 184.797 21.2667 184.157 21.52C183.517 21.7733 182.971 22.1133 182.517 22.54L182.157 22.06C182.664 21.58 183.271 21.2067 183.977 20.94C184.697 20.6733 185.451 20.54 186.237 20.54ZM185.617 30.5C187.484 30.5 188.751 29.6667 189.417 28V25.84H185.637C184.557 25.84 183.764 26.0467 183.257 26.46C182.764 26.86 182.517 27.4067 182.517 28.1C182.517 28.8467 182.791 29.4333 183.337 29.86C183.897 30.2867 184.657 30.5 185.617 30.5ZM194.323 20.62H194.983V29.94L202.783 20.62H203.362V31H202.703V21.68L194.883 31H194.323V20.62ZM198.823 18.94C198.049 18.94 197.403 18.7333 196.883 18.32C196.376 17.8933 196.116 17.32 196.103 16.6H196.623C196.636 17.1467 196.849 17.5933 197.263 17.94C197.689 18.2733 198.209 18.44 198.823 18.44C199.436 18.44 199.949 18.2733 200.363 17.94C200.776 17.5933 200.989 17.1467 201.003 16.6H201.543C201.529 17.32 201.263 17.8933 200.743 18.32C200.236 18.7333 199.596 18.94 198.823 18.94ZM215.698 20.62V31H215.038V21.22H209.258L209.118 24.18C209.038 25.6333 208.918 26.8467 208.758 27.82C208.611 28.78 208.351 29.5667 207.978 30.18C207.618 30.7933 207.104 31.1 206.438 31.1C206.318 31.1 206.071 31.06 205.698 30.98L205.778 30.4C205.991 30.4533 206.158 30.48 206.278 30.48C206.838 30.48 207.271 30.1933 207.578 29.62C207.884 29.0333 208.091 28.3067 208.198 27.44C208.318 26.56 208.411 25.44 208.478 24.08L208.658 20.62H215.698Z" fill="black"/>
<line x1="49.25" x2="49.25" y2="45" stroke="#313131" stroke-width="0.5"/>
<path d="M25.7825 13.3662C25.2072 12.8779 24.2729 12.8779 23.6976 13.3662L17.8066 18.3665C17.2313 18.8548 17.2313 19.6478 17.8066 20.1361C18.3819 20.6244 19.3162 20.6244 19.8915 20.1361L23.2696 17.2688V25.4996C23.2696 26.1911 23.9278 26.7497 24.7424 26.7497C25.557 26.7497 26.2151 26.1911 26.2151 25.4996V17.2688L29.5933 20.1361C30.1686 20.6244 31.1028 20.6244 31.6781 20.1361C32.2534 19.6478 32.2534 18.8548 31.6781 18.3665L25.7871 13.3662H25.7825ZM17.3786 26.7497C17.3786 26.0583 16.7205 25.4996 15.9059 25.4996C15.0912 25.4996 14.4331 26.0583 14.4331 26.7497V29.2498C14.4331 31.3202 16.4121 33 18.8514 33H30.6334C33.0726 33 35.0517 31.3202 35.0517 29.2498V26.7497C35.0517 26.0583 34.3935 25.4996 33.5789 25.4996C32.7643 25.4996 32.1062 26.0583 32.1062 26.7497V29.2498C32.1062 29.9413 31.448 30.4999 30.6334 30.4999H18.8514C18.0368 30.4999 17.3786 29.9413 17.3786 29.2498V26.7497Z" fill="black"/>
</svg>
