<svg width="40" height="40" viewBox="0 0 40 40" fill="none" xmlns="http://www.w3.org/2000/svg">
<rect width="40" height="40" rx="10" fill="black"/>
<path d="M32.8965 20.5971C35.7012 17.7139 35.7012 13.0446 32.8965 10.1614C30.4145 7.60988 26.5029 7.27819 23.6485 9.37553L23.5691 9.43166C22.8543 9.95727 22.6905 10.9779 23.2018 11.7076C23.7131 12.4373 24.7059 12.6108 25.4157 12.0852L25.4952 12.0291C27.0886 10.8605 29.2678 11.0442 30.6478 12.468C32.2115 14.0754 32.2115 16.6779 30.6478 18.2854L25.0782 24.0212C23.5145 25.6286 20.9829 25.6286 19.4192 24.0212C18.0343 22.5974 17.8555 20.3572 18.9923 18.7242L19.0469 18.6426C19.5582 17.9078 19.3894 16.8872 18.6796 16.3667C17.9697 15.8461 16.972 16.0145 16.4656 16.7443L16.411 16.8259C14.3658 19.7551 14.6885 23.7762 17.1705 26.3277C19.9752 29.2109 24.5173 29.2109 27.3219 26.3277L32.8965 20.5971ZM7.1035 19.4029C4.29883 22.2861 4.29883 26.9554 7.1035 29.8386C9.58551 32.3901 13.4971 32.7218 16.3515 30.6245L16.4309 30.5683C17.1457 30.0427 17.3095 29.0221 16.7982 28.2924C16.2869 27.5627 15.2941 27.3892 14.5843 27.9148L14.5048 27.9709C12.9114 29.1395 10.7322 28.9558 9.3522 27.532C7.78853 25.9195 7.78853 23.317 9.3522 21.7095L14.9218 15.9788C16.4855 14.3714 19.0171 14.3714 20.5808 15.9788C21.9657 17.4026 22.1445 19.6428 21.0077 21.2809L20.9531 21.3625C20.4418 22.0973 20.6106 23.1179 21.3204 23.6384C22.0303 24.159 23.028 23.9906 23.5344 23.2608L23.589 23.1792C25.6342 20.2449 25.3115 16.2238 22.8295 13.6723C20.0248 10.7891 15.4828 10.7891 12.6781 13.6723L7.1035 19.4029Z" fill="white"/>
</svg>
