<svg width="300" height="45" viewBox="0 0 300 45" fill="none" xmlns="http://www.w3.org/2000/svg">
<path d="M96.24 23.144C97.04 23.304 97.6587 23.624 98.096 24.104C98.544 24.5733 98.768 25.16 98.768 25.864C98.768 26.5147 98.576 27.0853 98.192 27.576C97.808 28.056 97.296 28.424 96.656 28.68C96.0267 28.936 95.344 29.064 94.608 29.064C93.872 29.064 93.152 28.9307 92.448 28.664C91.7547 28.3973 91.1467 28.0027 90.624 27.48L90.88 27.128C91.3707 27.608 91.9413 27.9707 92.592 28.216C93.2427 28.4613 93.904 28.584 94.576 28.584C95.2373 28.584 95.8453 28.4773 96.4 28.264C96.9547 28.04 97.3973 27.72 97.728 27.304C98.0693 26.8773 98.24 26.3813 98.24 25.816C98.24 25.048 97.9467 24.456 97.36 24.04C96.7733 23.6133 95.9413 23.4 94.864 23.4H92.624V22.92H94.864C95.7707 22.92 96.48 22.7227 96.992 22.328C97.504 21.9333 97.76 21.384 97.76 20.68C97.76 19.9013 97.4453 19.288 96.816 18.84C96.1867 18.392 95.4027 18.168 94.464 18.168C93.92 18.168 93.3653 18.2533 92.8 18.424C92.2453 18.584 91.712 18.8293 91.2 19.16L90.976 18.712C91.52 18.3707 92.0907 18.1147 92.688 17.944C93.296 17.7627 93.888 17.672 94.464 17.672C95.168 17.672 95.8133 17.7947 96.4 18.04C96.9867 18.2747 97.4507 18.616 97.792 19.064C98.1333 19.512 98.304 20.0347 98.304 20.632C98.304 21.2613 98.1227 21.7947 97.76 22.232C97.3973 22.6693 96.8907 22.9733 96.24 23.144ZM104.512 20.632C105.504 20.632 106.261 20.888 106.784 21.4C107.317 21.912 107.584 22.6533 107.584 23.624V29H107.072V27.336C106.805 27.8693 106.405 28.2907 105.872 28.6C105.349 28.8987 104.72 29.048 103.984 29.048C103.056 29.048 102.325 28.8347 101.792 28.408C101.269 27.9813 101.008 27.416 101.008 26.712C101.008 26.04 101.248 25.496 101.728 25.08C102.208 24.6533 102.976 24.44 104.032 24.44H107.056V23.624C107.056 22.8027 106.837 22.1787 106.4 21.752C105.973 21.3253 105.338 21.112 104.496 21.112C103.909 21.112 103.36 21.2133 102.848 21.416C102.336 21.6187 101.898 21.8907 101.536 22.232L101.248 21.848C101.653 21.464 102.138 21.1653 102.704 20.952C103.28 20.7387 103.882 20.632 104.512 20.632ZM104.016 28.6C105.509 28.6 106.522 27.9333 107.056 26.6V24.872H104.032C103.168 24.872 102.533 25.0373 102.128 25.368C101.733 25.688 101.536 26.1253 101.536 26.68C101.536 27.2773 101.754 27.7467 102.192 28.088C102.64 28.4293 103.248 28.6 104.016 28.6ZM116.5 21.176H111.508V29H110.98V20.696H116.5V21.176ZM122.389 20.632C123.146 20.632 123.834 20.8133 124.453 21.176C125.071 21.528 125.557 22.0293 125.909 22.68C126.271 23.32 126.453 24.0453 126.453 24.856C126.453 25.6667 126.271 26.392 125.909 27.032C125.557 27.6613 125.071 28.1573 124.453 28.52C123.834 28.872 123.146 29.048 122.389 29.048C121.589 29.048 120.869 28.8453 120.229 28.44C119.599 28.0347 119.13 27.48 118.821 26.776V32.104H118.293V20.696H118.805V22.968C119.114 22.2427 119.583 21.672 120.213 21.256C120.853 20.84 121.578 20.632 122.389 20.632ZM122.373 28.568C123.045 28.568 123.647 28.4133 124.181 28.104C124.725 27.784 125.151 27.3467 125.461 26.792C125.77 26.2267 125.925 25.5813 125.925 24.856C125.925 24.1307 125.77 23.4853 125.461 22.92C125.151 22.3547 124.725 21.9173 124.181 21.608C123.647 21.288 123.045 21.128 122.373 21.128C121.701 21.128 121.093 21.288 120.549 21.608C120.015 21.9173 119.594 22.3547 119.285 22.92C118.975 23.4853 118.821 24.1307 118.821 24.856C118.821 25.5813 118.975 26.2267 119.285 26.792C119.594 27.3467 120.015 27.784 120.549 28.104C121.093 28.4133 121.701 28.568 122.373 28.568ZM135.492 20.696L131.14 30.248C130.831 30.9413 130.479 31.432 130.084 31.72C129.69 32.008 129.226 32.152 128.692 32.152C128.319 32.152 127.972 32.088 127.652 31.96C127.332 31.8427 127.06 31.6613 126.836 31.416L127.14 31C127.364 31.2453 127.599 31.4213 127.844 31.528C128.09 31.6347 128.372 31.688 128.692 31.688C129.108 31.688 129.466 31.5707 129.764 31.336C130.074 31.1013 130.362 30.696 130.628 30.12L131.156 28.984L127.38 20.696H127.956L131.444 28.392L134.932 20.696H135.492ZM140.652 24.648C141.302 24.7653 141.804 25 142.156 25.352C142.508 25.6933 142.684 26.1253 142.684 26.648C142.684 27.128 142.524 27.5547 142.204 27.928C141.894 28.2907 141.478 28.5733 140.956 28.776C140.444 28.968 139.889 29.0693 139.292 29.08C138.673 29.08 138.076 28.984 137.5 28.792C136.934 28.6 136.444 28.312 136.028 27.928L136.284 27.56C136.657 27.912 137.11 28.1787 137.644 28.36C138.177 28.5307 138.726 28.616 139.292 28.616C140.081 28.6053 140.753 28.4187 141.308 28.056C141.862 27.6827 142.14 27.1973 142.14 26.6C142.14 26.0667 141.894 25.6507 141.404 25.352C140.924 25.0533 140.268 24.904 139.436 24.904H138.172V24.456H139.436C140.15 24.456 140.737 24.312 141.196 24.024C141.665 23.736 141.9 23.352 141.9 22.872C141.9 22.296 141.644 21.8533 141.132 21.544C140.63 21.2347 140.001 21.08 139.244 21.08C138.326 21.08 137.446 21.3253 136.604 21.816L136.412 21.384C136.87 21.128 137.345 20.936 137.836 20.808C138.337 20.6693 138.822 20.6 139.292 20.6C140.198 20.6 140.95 20.7973 141.548 21.192C142.145 21.5867 142.444 22.1253 142.444 22.808C142.444 23.256 142.278 23.6453 141.948 23.976C141.628 24.296 141.196 24.52 140.652 24.648ZM145.621 20.696H146.149V28.152L152.389 20.696H152.852V29H152.325V21.544L146.069 29H145.621V20.696ZM161.761 21.176H158.449V29H157.921V21.176H154.593V20.696H161.761V21.176ZM166.663 23.784C167.687 23.8053 168.465 24.0347 168.999 24.472C169.532 24.8987 169.799 25.528 169.799 26.36C169.799 27.2453 169.516 27.9173 168.951 28.376C168.396 28.824 167.58 29.0427 166.503 29.032L163.527 29V20.696H164.055V23.752L166.663 23.784ZM166.503 28.584C167.42 28.5947 168.108 28.4133 168.567 28.04C169.036 27.6667 169.271 27.112 169.271 26.376C169.271 25.6507 169.041 25.1173 168.583 24.776C168.135 24.424 167.441 24.2373 166.503 24.216L164.055 24.184V28.568L166.503 28.584ZM187.989 23.4C187.989 24.3813 187.743 25.2293 187.253 25.944C186.773 26.6587 186.079 27.2133 185.173 27.608C184.277 27.992 183.205 28.1947 181.957 28.216V29.336H181.429V28.216C180.191 28.2053 179.119 28.008 178.213 27.624C177.306 27.2293 176.607 26.6747 176.117 25.96C175.626 25.2453 175.381 24.392 175.381 23.4C175.381 22.408 175.626 21.5547 176.117 20.84C176.607 20.1253 177.306 19.576 178.213 19.192C179.119 18.7973 180.191 18.5947 181.429 18.584V17.464H181.957V18.584C183.205 18.6053 184.277 18.808 185.173 19.192C186.079 19.576 186.773 20.1253 187.253 20.84C187.743 21.5547 187.989 22.408 187.989 23.4ZM181.957 27.736C183.685 27.6933 185.034 27.2933 186.005 26.536C186.975 25.7787 187.461 24.7333 187.461 23.4C187.461 22.056 186.97 21.0053 185.989 20.248C185.018 19.48 183.674 19.08 181.957 19.048V27.736ZM175.925 23.4C175.925 24.744 176.41 25.7947 177.381 26.552C178.362 27.2987 179.711 27.6933 181.429 27.736V19.048C179.701 19.0907 178.351 19.4907 177.381 20.248C176.41 21.0053 175.925 22.056 175.925 23.4ZM193.418 20.632C194.41 20.632 195.167 20.888 195.69 21.4C196.223 21.912 196.49 22.6533 196.49 23.624V29H195.978V27.336C195.711 27.8693 195.311 28.2907 194.778 28.6C194.255 28.8987 193.626 29.048 192.89 29.048C191.962 29.048 191.231 28.8347 190.698 28.408C190.175 27.9813 189.914 27.416 189.914 26.712C189.914 26.04 190.154 25.496 190.634 25.08C191.114 24.6533 191.882 24.44 192.938 24.44H195.962V23.624C195.962 22.8027 195.743 22.1787 195.306 21.752C194.879 21.3253 194.245 21.112 193.402 21.112C192.815 21.112 192.266 21.2133 191.754 21.416C191.242 21.6187 190.805 21.8907 190.442 22.232L190.154 21.848C190.559 21.464 191.045 21.1653 191.61 20.952C192.186 20.7387 192.789 20.632 193.418 20.632ZM192.922 28.6C194.415 28.6 195.429 27.9333 195.962 26.6V24.872H192.938C192.074 24.872 191.439 25.0373 191.034 25.368C190.639 25.688 190.442 26.1253 190.442 26.68C190.442 27.2773 190.661 27.7467 191.098 28.088C191.546 28.4293 192.154 28.6 192.922 28.6ZM199.886 20.696H200.414V28.152L206.654 20.696H207.118V29H206.59V21.544L200.334 29H199.886V20.696ZM203.486 19.352C202.867 19.352 202.35 19.1867 201.934 18.856C201.529 18.5147 201.321 18.056 201.31 17.48H201.726C201.737 17.9173 201.907 18.2747 202.238 18.552C202.579 18.8187 202.995 18.952 203.486 18.952C203.977 18.952 204.387 18.8187 204.718 18.552C205.049 18.2747 205.219 17.9173 205.23 17.48H205.662C205.651 18.056 205.438 18.5147 205.022 18.856C204.617 19.1867 204.105 19.352 203.486 19.352ZM216.986 20.696V29H216.458V21.176H211.834L211.722 23.544C211.658 24.7067 211.562 25.6773 211.434 26.456C211.317 27.224 211.109 27.8533 210.81 28.344C210.522 28.8347 210.112 29.08 209.578 29.08C209.482 29.08 209.285 29.048 208.986 28.984L209.05 28.52C209.221 28.5627 209.354 28.584 209.45 28.584C209.898 28.584 210.245 28.3547 210.49 27.896C210.736 27.4267 210.901 26.8453 210.986 26.152C211.082 25.448 211.157 24.552 211.21 23.464L211.354 20.696H216.986Z" fill="white"/>
<path d="M23.0089 13.3662C22.4509 12.8779 21.5446 12.8779 20.9866 13.3662L15.2723 18.3665C14.7143 18.8548 14.7143 19.6478 15.2723 20.1361C15.8304 20.6244 16.7366 20.6244 17.2946 20.1361L20.5714 17.2688V25.4996C20.5714 26.1911 21.2098 26.7497 22 26.7497C22.7902 26.7497 23.4286 26.1911 23.4286 25.4996V17.2688L26.7054 20.1361C27.2634 20.6244 28.1696 20.6244 28.7277 20.1361C29.2857 19.6478 29.2857 18.8548 28.7277 18.3665L23.0134 13.3662H23.0089ZM14.8571 26.7497C14.8571 26.0583 14.2188 25.4996 13.4286 25.4996C12.6384 25.4996 12 26.0583 12 26.7497V29.2498C12 31.3202 13.9196 33 16.2857 33H27.7143C30.0804 33 32 31.3202 32 29.2498V26.7497C32 26.0583 31.3616 25.4996 30.5714 25.4996C29.7812 25.4996 29.1429 26.0583 29.1429 26.7497V29.2498C29.1429 29.9413 28.5045 30.4999 27.7143 30.4999H16.2857C15.4955 30.4999 14.8571 29.9413 14.8571 29.2498V26.7497Z" fill="white"/>
<path d="M0.25 0.25H277.5C289.788 0.25 299.75 10.2117 299.75 22.5C299.75 34.7883 289.788 44.75 277.5 44.75H0.25V0.25Z" stroke="white" stroke-width="0.5"/>
<line x1="45.25" x2="45.25" y2="45" stroke="white" stroke-width="0.5"/>
</svg>
