<svg width="250" height="45" viewBox="0 0 250 45" fill="none" xmlns="http://www.w3.org/2000/svg">
<rect width="250" height="45" fill="#313131"/>
<path d="M98.5 17C100.247 17 101.607 17.4133 102.58 18.24C103.567 19.0533 104.06 20.1867 104.06 21.64C104.06 23.1067 103.567 24.2533 102.58 25.08C101.607 25.8933 100.247 26.3 98.5 26.3H94.32V31H93.64V17H98.5ZM98.54 25.68C100.1 25.68 101.3 25.3333 102.14 24.64C102.98 23.9333 103.4 22.9333 103.4 21.64C103.4 20.36 102.98 19.3733 102.14 18.68C101.3 17.9733 100.1 17.62 98.54 17.62H94.32V25.68H98.54ZM115.729 25.9H106.629C106.642 26.78 106.849 27.5667 107.249 28.26C107.649 28.9533 108.196 29.4933 108.889 29.88C109.596 30.2667 110.382 30.46 111.249 30.46C111.956 30.46 112.609 30.3333 113.209 30.08C113.809 29.8133 114.302 29.4267 114.689 28.92L115.109 29.36C114.642 29.9067 114.076 30.3267 113.409 30.62C112.742 30.9133 112.022 31.06 111.249 31.06C110.236 31.06 109.329 30.84 108.529 30.4C107.742 29.9467 107.122 29.32 106.669 28.52C106.216 27.72 105.989 26.8133 105.989 25.8C105.989 24.7867 106.196 23.88 106.609 23.08C107.036 22.28 107.622 21.66 108.369 21.22C109.116 20.7667 109.949 20.54 110.869 20.54C111.776 20.54 112.596 20.76 113.329 21.2C114.076 21.64 114.662 22.2533 115.089 23.04C115.516 23.8267 115.729 24.72 115.729 25.72V25.9ZM110.869 21.14C110.096 21.14 109.396 21.32 108.769 21.68C108.142 22.04 107.642 22.5467 107.269 23.2C106.896 23.84 106.689 24.56 106.649 25.36H115.109C115.056 24.56 114.836 23.84 114.449 23.2C114.076 22.5467 113.576 22.04 112.949 21.68C112.336 21.32 111.642 21.14 110.869 21.14ZM128.287 30.42V33.64H127.647V31H117.407V33.64H116.767V30.42H117.387C117.894 30.3933 118.287 30.0867 118.567 29.5C118.847 28.9 119.04 28.1667 119.147 27.3C119.267 26.42 119.36 25.3267 119.427 24.02L119.587 20.62H126.587V30.42H128.287ZM120.047 24.04C119.98 25.7067 119.834 27.1 119.607 28.22C119.394 29.34 119.014 30.0733 118.467 30.42H125.927V21.22H120.187L120.047 24.04ZM131.045 31.06C130.858 31.06 130.698 31 130.565 30.88C130.445 30.7467 130.385 30.5867 130.385 30.4C130.385 30.2133 130.451 30.06 130.585 29.94C130.718 29.8067 130.871 29.74 131.045 29.74C131.231 29.74 131.385 29.8067 131.505 29.94C131.638 30.06 131.705 30.2133 131.705 30.4C131.705 30.5867 131.638 30.7467 131.505 30.88C131.385 31 131.231 31.06 131.045 31.06ZM145.512 17C147.258 17 148.618 17.4133 149.592 18.24C150.578 19.0533 151.072 20.1867 151.072 21.64C151.072 23.1067 150.578 24.2533 149.592 25.08C148.618 25.8933 147.258 26.3 145.512 26.3H141.332V31H140.652V17H145.512ZM145.552 25.68C147.112 25.68 148.312 25.3333 149.152 24.64C149.992 23.9333 150.412 22.9333 150.412 21.64C150.412 20.36 149.992 19.3733 149.152 18.68C148.312 17.9733 147.112 17.62 145.552 17.62H141.332V25.68H145.552ZM157.401 20.54C158.641 20.54 159.588 20.86 160.241 21.5C160.908 22.14 161.241 23.0667 161.241 24.28V31H160.601V28.92C160.268 29.5867 159.768 30.1133 159.101 30.5C158.448 30.8733 157.661 31.06 156.741 31.06C155.581 31.06 154.668 30.7933 154.001 30.26C153.348 29.7267 153.021 29.02 153.021 28.14C153.021 27.3 153.321 26.62 153.921 26.1C154.521 25.5667 155.481 25.3 156.801 25.3H160.581V24.28C160.581 23.2533 160.308 22.4733 159.761 21.94C159.228 21.4067 158.435 21.14 157.381 21.14C156.648 21.14 155.961 21.2667 155.321 21.52C154.681 21.7733 154.135 22.1133 153.681 22.54L153.321 22.06C153.828 21.58 154.435 21.2067 155.141 20.94C155.861 20.6733 156.615 20.54 157.401 20.54ZM156.781 30.5C158.648 30.5 159.915 29.6667 160.581 28V25.84H156.801C155.721 25.84 154.928 26.0467 154.421 26.46C153.928 26.86 153.681 27.4067 153.681 28.1C153.681 28.8467 153.955 29.4333 154.501 29.86C155.061 30.2867 155.821 30.5 156.781 30.5ZM170.147 20.7C171.107 20.7 171.96 20.92 172.707 21.36C173.453 21.7867 174.033 22.3933 174.447 23.18C174.873 23.9533 175.087 24.84 175.087 25.84C175.087 26.8533 174.873 27.76 174.447 28.56C174.02 29.3467 173.427 29.9667 172.667 30.42C171.907 30.86 171.04 31.08 170.067 31.08C168.947 31.08 167.987 30.8 167.187 30.24C166.4 29.6667 165.8 28.8733 165.387 27.86C164.987 26.8467 164.787 25.6733 164.787 24.34C164.787 22.74 164.973 21.4267 165.347 20.4C165.72 19.3733 166.28 18.5733 167.027 18C167.773 17.4133 168.74 16.9733 169.927 16.68L174.467 15.54L174.587 16.18L170.227 17.24C169.093 17.52 168.18 17.92 167.487 18.44C166.793 18.96 166.273 19.68 165.927 20.6C165.593 21.52 165.427 22.7133 165.427 24.18V24.22C165.72 23.14 166.287 22.2867 167.127 21.66C167.967 21.02 168.973 20.7 170.147 20.7ZM170.087 30.48C170.927 30.48 171.673 30.2867 172.327 29.9C172.993 29.5 173.507 28.9533 173.867 28.26C174.24 27.5533 174.427 26.7467 174.427 25.84C174.427 24.9467 174.24 24.16 173.867 23.48C173.507 22.7867 172.993 22.2533 172.327 21.88C171.673 21.4933 170.927 21.3 170.087 21.3C169.247 21.3 168.493 21.4933 167.827 21.88C167.16 22.2533 166.64 22.7867 166.267 23.48C165.907 24.16 165.727 24.9467 165.727 25.84C165.727 26.7467 165.913 27.5533 166.287 28.26C166.66 28.9533 167.173 29.5 167.827 29.9C168.493 30.2867 169.247 30.48 170.087 30.48ZM182.593 31.06C181.633 31.06 180.759 30.84 179.973 30.4C179.199 29.9467 178.593 29.32 178.153 28.52C177.713 27.72 177.493 26.8133 177.493 25.8C177.493 24.7867 177.713 23.88 178.153 23.08C178.593 22.28 179.199 21.66 179.973 21.22C180.759 20.7667 181.633 20.54 182.593 20.54C183.566 20.54 184.439 20.7667 185.213 21.22C185.986 21.66 186.593 22.28 187.033 23.08C187.473 23.88 187.693 24.7867 187.693 25.8C187.693 26.8133 187.473 27.72 187.033 28.52C186.593 29.32 185.986 29.9467 185.213 30.4C184.439 30.84 183.566 31.06 182.593 31.06ZM182.593 30.46C183.433 30.46 184.186 30.2667 184.853 29.88C185.533 29.48 186.066 28.9267 186.453 28.22C186.839 27.5133 187.033 26.7067 187.033 25.8C187.033 24.8933 186.839 24.0933 186.453 23.4C186.066 22.6933 185.533 22.1467 184.853 21.76C184.186 21.36 183.433 21.16 182.593 21.16C181.753 21.16 180.993 21.36 180.313 21.76C179.646 22.1467 179.119 22.6933 178.733 23.4C178.346 24.0933 178.153 24.8933 178.153 25.8C178.153 26.7067 178.346 27.5133 178.733 28.22C179.119 28.9267 179.646 29.48 180.313 29.88C180.993 30.2667 181.753 30.46 182.593 30.46ZM197.4 21.22H193.26V31H192.6V21.22H188.44V20.62H197.4V21.22ZM207.768 20.62L202.328 32.56C201.941 33.4267 201.501 34.04 201.008 34.4C200.514 34.76 199.934 34.94 199.268 34.94C198.801 34.94 198.368 34.86 197.968 34.7C197.568 34.5533 197.228 34.3267 196.948 34.02L197.328 33.5C197.608 33.8067 197.901 34.0267 198.208 34.16C198.514 34.2933 198.868 34.36 199.268 34.36C199.788 34.36 200.234 34.2133 200.608 33.92C200.994 33.6267 201.354 33.12 201.688 32.4L202.348 30.98L197.628 20.62H198.348L202.708 30.24L207.068 20.62H207.768Z" fill="white"/>
<line x1="49.25" x2="49.25" y2="45" stroke="white" stroke-width="0.5"/>
<path d="M30.6665 32.9167H18.1665C16.4406 32.9167 15.0415 31.5175 15.0415 29.7917V17.2917C15.0415 15.5658 16.4406 14.1667 18.1665 14.1667H26.4998C27.0751 14.1667 27.5415 14.633 27.5415 15.2083C27.5415 15.7836 27.0751 16.25 26.4998 16.25H18.1665C17.5912 16.25 17.1248 16.7164 17.1248 17.2917V29.7917C17.1248 30.367 17.5912 30.8333 18.1665 30.8333H30.6665C31.2418 30.8333 31.7082 30.367 31.7082 29.7917V21.4583C31.7082 20.883 32.1745 20.4167 32.7498 20.4167C33.3251 20.4167 33.7915 20.883 33.7915 21.4583V29.7917C33.7915 31.5175 32.3924 32.9167 30.6665 32.9167Z" fill="white"/>
<path d="M24.9374 24.0625C24.6605 24.0641 24.3944 23.9554 24.1978 23.7604C24.0006 23.5648 23.8896 23.2986 23.8896 23.0208C23.8896 22.7431 24.0006 22.4768 24.1978 22.2812L34.0936 12.3854C34.5021 11.977 35.1643 11.977 35.5728 12.3854C35.9812 12.7939 35.9812 13.4561 35.5728 13.8646L25.6769 23.7604C25.4804 23.9554 25.2142 24.0641 24.9374 24.0625Z" fill="white"/>
</svg>
